<?xml version="1.0" encoding="UTF-8" standalone="no"?>
<!DOCTYPE svg PUBLIC "-//W3C//DTD SVG 1.1//EN" "http://www.w3.org/Graphics/SVG/1.1/DTD/svg11.dtd">
<svg width="100%" height="100%" viewBox="0 0 243 267" version="1.1" xmlns="http://www.w3.org/2000/svg" xmlns:xlink="http://www.w3.org/1999/xlink" xml:space="preserve" xmlns:serif="http://www.serif.com/" style="fill-rule:evenodd;clip-rule:evenodd;stroke-linejoin:round;stroke-miterlimit:2;">
    <g transform="matrix(0.53735,0,0,0.53735,-27.431261,-17.844959)">
        <path d="M51.049,290.503C51.42,261.825 56.558,246.35 70.195,215.371C90.154,170.032 79.456,138.363 116.039,103.018C148.449,71.706 155.844,61.867 189.524,51.578C225.024,40.733 235.456,32.954 258.512,33.216C263.886,33.277 261.648,39.649 262.048,60.5C263.383,130.043 261.633,129.997 263.002,199.5C263.533,226.421 262.771,302.7 263.883,304.203C265.307,306.129 433.085,302.65 486.512,303.206C495.097,303.296 492.663,313.31 490.9,322.581C483.977,358.992 489.652,396.638 452.602,436.591C406.218,486.61 381.101,499.265 373.737,502.976C340.499,519.724 269.417,552.499 180.239,499.944C156.567,485.993 97.355,451.267 72.6,378.467C49.502,310.54 51.272,296.688 51.049,290.503ZM279.501,340.908C280.689,340.843 289.505,342.723 305.357,329.317C313.013,322.843 316.618,317.776 318.238,315.375C320.272,312.359 310.885,313.303 306.499,313.294C301.731,313.284 302.252,318.04 295.125,324.043C263.065,351.045 243.19,313.838 241.907,302.447C239.681,282.694 254.721,270.267 254.814,266.517C255.027,257.851 254.556,257.918 254.339,257.811C253.946,257.617 246.178,261.27 239.803,275.626C229.79,298.175 237.403,311.572 238.931,314.26C254.407,341.494 269.57,339.961 279.501,340.908ZM207.906,292.561C210.557,278.088 214.49,254.361 241.862,233.971C251.069,227.112 254.533,229.065 254.57,221.499C254.596,216.213 255.547,212.721 250.699,214.958C219.216,229.49 204.781,243.632 201.495,290.5C195.051,382.382 322.461,411.285 352.006,315.365C353.143,311.673 345.583,312.777 344.429,313.41C343.187,314.092 331.003,355.983 296.536,363.663C278.318,367.722 256.39,373.467 233.752,349.282C210.448,324.387 205.86,316.14 207.906,292.561ZM254.386,274.979C253.581,275.444 253.362,275.052 252.883,275.848C243.597,291.292 240.725,305.341 256.971,323.07C274.895,342.629 304.115,313.46 297.577,313.223C288.455,312.892 259.207,314.646 256.719,312.283C254.666,310.332 254.238,304.801 255.171,275.585L254.386,274.979ZM435.498,312.04C428.275,311.995 423.351,310.993 422.837,314.548C410.177,402.126 356.911,416.882 349.604,420.699C336.02,427.795 298.73,461.635 258.615,449.099C222.681,437.869 225.429,432.714 211.197,420.863C188.61,402.056 161.212,416.036 156.438,379.508C153.744,358.896 160.323,357.257 147.864,333.314C130.503,299.948 137.691,258.962 138.814,252.559C139.997,245.818 142.524,202.987 180.902,155.854C206.6,124.293 253.151,125.13 253.857,119.573C253.974,118.65 255.198,109.017 253.199,107.957C252.927,107.813 209.751,115.936 190.723,129.806C187.923,131.846 157.407,160.257 143.451,192.478C137.481,206.26 131.646,225.624 132.623,215.503C132.813,213.536 138.398,193.82 145.771,179.634C147.797,175.736 155.419,161.071 178.691,135.678C194.548,118.374 211.781,114.617 241.573,106.763C251.244,104.214 253.752,105.163 253.766,101.508C253.768,100.945 253.792,94.873 252.475,94.594C251.837,94.46 231.707,96.163 215.662,102.908C183.549,116.41 182.399,117.192 179.8,118.961C163.28,130.203 135.63,176.223 130.335,190.431C120.612,216.52 125.431,218.09 113.721,243.599C96.775,280.517 108.775,287.615 118.976,323.38C128.185,355.667 132.87,354.417 137.187,366.605C146.742,393.574 138.656,404.282 173.363,417.855C208.569,431.623 197.914,447.237 231.706,464.111C280.019,488.236 300.265,468.857 331.441,458.351C352.702,451.186 352.391,450.16 390.83,420.908C429.76,391.282 426.387,379.944 440.447,321.488C440.623,320.755 442.666,312.263 440.617,312.065C440.209,312.025 440.238,312.063 435.498,312.04ZM278.493,447.934C313.578,446.073 330.439,424.953 352.631,414.798C374.15,404.951 396.599,392.233 413.203,341.387C415.453,334.498 420.286,313.89 418.566,312.398C418.392,312.247 403.846,311.258 402.884,313.695C385.128,358.652 397.488,368.684 356.773,393.947C348.373,399.159 286.27,446.189 231.76,410.092C226.399,406.542 212.451,397.306 182.918,346.267C176.674,335.476 144.872,286.222 188.039,216.231C191.301,210.941 207.861,184.09 248.452,167.391C250.926,166.374 253.925,166.349 253.982,163.541C254.317,147.042 253.84,146.201 252.496,146.472C249.357,147.107 222.482,154.602 205.669,172.664C198.361,180.515 172.341,220.681 164.742,242.587C146.264,295.857 166.914,314.686 172.878,348.431C177.622,375.275 179.662,381.546 194.808,394.308C202.996,401.207 181.673,392.905 174.756,371.422C168.924,353.31 172.555,351.416 163.255,325.588C154.845,302.231 140.896,268.89 177.851,207.712C195.155,179.068 205.57,155.612 249.421,143.219C251.516,142.627 254.01,143.375 254.014,138.505C254.024,125.581 253.564,125.107 252.508,125.258C252.234,125.296 227.107,131.062 211.667,137.867C207.328,139.78 183.61,146.935 158.07,198.283C155.597,203.255 144.857,224.847 140.9,265.544C135.889,317.071 157.135,334.648 159.131,352.545C161.478,373.599 151.791,398.349 184.422,405.796C216.414,413.097 212.055,421.458 231.738,434.127C233.883,435.508 242.894,441.307 261.422,445.777C269.86,447.813 269.816,447.586 278.493,447.934ZM456.502,311.937C454.825,311.943 446.619,311.217 446.056,313.349C445.238,316.448 446.016,316.606 437.218,352.422C430.34,380.423 434.1,393.37 388.18,428.067C356.094,452.31 356.592,453.664 329.397,463.198C306.606,471.189 276.138,495.972 219.804,462.01C201.383,450.904 202.46,432.889 172.411,421.73C130.699,406.24 144.044,386.314 129.045,358.737C114.917,332.762 118.366,331.419 108.012,303.672C90.599,257.007 111.123,253.788 118.981,216.596C126.792,179.631 133.592,172.767 159.803,133.715C172.831,114.306 182.586,112.314 214.357,99.155C240.183,88.458 253.628,93.52 253.529,87.5C253.207,67.972 253.128,66.955 251.508,67.17C239.053,68.82 238.552,71.051 188.557,88.649C143.181,104.62 120.228,155.827 116.335,178.469C112.128,202.935 115.043,205.879 99.173,239.343C77.559,284.921 88.692,299.625 105.943,347.345C110.606,360.242 115.31,364.632 123.058,380.737C138.705,413.264 135.998,416.511 165.779,436.057C196.594,456.282 190.619,481.052 244.425,492.865C253.556,494.87 303.048,509.483 377.416,457.375C393.138,446.36 407.306,428.517 424.11,415.025C457.684,388.067 452.792,343.853 461.178,317.387C461.306,316.983 462.727,312.496 461.708,312.113C461.318,311.966 461.188,311.917 456.502,311.937ZM278.497,398.045C247.591,396.854 238.876,387.781 216.342,365.661C215.103,364.446 160.11,319.96 198.187,234.361C213.128,200.771 253.121,189.756 253.89,187.677C254.246,186.713 254.132,180.965 254.139,174.499C254.144,170.612 253.988,168.715 250.427,170.331C207.208,189.94 182.051,216.439 170.252,271.444C163.659,302.181 179.615,332.929 182.096,337.709C188.755,350.542 213.712,392.542 228.84,404.074C280.931,443.784 341.41,400.106 361.317,387.216C385.919,371.286 382.729,363.293 397.165,320.387C397.537,319.281 400.56,312.548 397.506,312.454C383.83,312.035 383.463,313.249 383.128,314.36C373.096,347.586 368.78,345.567 347.857,362.933C330.572,377.279 317.685,396.471 278.497,398.045ZM189.061,308.564C197.116,347.337 211.464,355.431 233.886,378.1C251.975,396.389 295.81,405.523 331.327,373.316C364.107,343.592 369.371,346.653 378.677,317.564C381.181,309.737 375.688,312.704 367.504,312.827C364.441,312.872 356.943,312.12 356.187,314.373C352.191,326.28 342.742,358.707 305.558,373.642C263.563,390.509 196.522,362.473 198.286,295.496C200.189,223.279 236.997,219.987 253.178,210.06C254.24,209.408 255.401,208.695 254.317,194.521C254.176,192.675 252.207,190.624 232.737,202.86C218.188,212.004 197.863,226.191 189.279,275.457C186.842,289.442 188.756,305.933 189.061,308.564ZM292.441,499.066C292.175,499.089 227.607,508.759 191.952,469.069C178.77,454.394 181.814,451.159 160.177,436.984C124.008,413.29 133.807,404.836 110.349,365.589C102.713,352.813 84.762,307.051 83.884,290.475C81.202,239.86 104.736,243.334 110.999,185.555C115.227,146.557 147.173,97.745 187.476,84.426C219.7,73.777 218.525,70.357 251.555,62.684C254.003,62.115 253.908,50.399 251.5,50.502C237.574,51.1 218.293,61.531 192.507,68.528C170.845,74.407 156.463,86.38 128.106,115.117C93.901,149.781 108.299,176.368 80.182,235.354C63.138,271.111 68.759,300.785 69.829,306.43C73.285,324.671 85.574,372.047 102.864,403.306C113.331,422.23 133.47,452.461 187.251,483.947C210.856,497.767 280.825,538.927 377.238,481.046C397.639,468.798 445.352,424.137 456.212,402.35C472.024,370.631 469.648,339.611 474.355,319.465C475.771,313.406 476.252,313.348 475.561,312.45C474.95,311.657 467.195,311.13 466.354,313.428C455.417,343.295 464.841,385.683 426.877,417.939C398.418,442.119 386.798,465.806 322.678,490.947C308.055,496.681 307.846,495.788 292.441,499.066ZM223.954,299.511C224.076,302.551 224.642,316.71 238.077,334.829C247.601,347.672 279.012,355.846 293.296,349.087C312.703,339.903 320.233,325.679 320.612,330.498C320.727,331.958 302.319,353.914 283.472,355.125C281.564,355.248 247.673,355.318 233.923,335.193C218.079,312.005 218.484,299.669 223.944,277.609C228.936,257.442 250.417,242.703 253.545,240.556C255.354,239.315 255.356,231.117 253.559,231.061C252.403,231.025 240.608,238.54 234.8,244.776C233.039,246.666 207.397,270.279 211.923,309.457C213.29,321.293 220.006,329.401 239.131,349.867C262.766,375.158 307.817,361.587 322.276,344.306C332.384,332.226 340.718,314.789 339.601,313.412C339.281,313.018 324.832,311.766 322.844,314.724C320.387,318.384 301.286,346.824 276.497,344.533C274.494,344.348 251.29,345.274 235.996,316.238C232.067,308.78 227.927,300.545 235.794,276.594C241.493,259.24 254.674,254.345 254.819,250.51C255.005,245.59 254.937,245.308 254.314,244.968C253.464,244.504 232.778,258.619 227.344,279.456C224.763,289.35 225.272,289.397 223.954,299.511ZM293.922,97.487C293.19,49.821 292.284,48.112 294.491,48.365C299.599,48.95 329.571,56.269 332.608,57.011C378.865,68.306 376.526,74.1 399.671,86.187C416.227,94.832 461.701,103.888 468.192,158.54C473.294,201.5 499.611,210.677 502.232,263.518C502.717,273.293 499.25,272.688 489.5,272.697C298.918,272.875 297.271,274.294 295.421,270.546C294.042,267.754 294.773,130.847 293.922,97.487ZM303.123,236.5C303.528,240.624 303.749,240.777 307.227,242.946C318.752,250.133 324.925,264.155 328.511,264.418C329.007,264.455 334.664,264.87 334.658,263.513C334.656,262.95 323.339,244.319 312.159,236.993C311.529,236.581 304.94,232.263 303.708,232.867C302.69,233.365 303.209,233.675 303.123,236.5ZM303.173,255.496C303.175,256.179 303.198,263.539 303.872,264.004C304.661,264.55 312.25,264.384 315.5,264.45C320.573,264.551 322.07,266.141 321.998,263.535C321.958,262.131 303.459,240.407 303.147,246.377C303.109,247.106 303.149,247.053 303.173,255.496ZM477.5,263.93C482.842,263.875 485.301,264.857 484.692,259.481C478.978,209.014 458.296,212.663 451.663,162.483C445.123,113.002 411.901,115.892 377.762,93.12C358.369,80.184 351.589,79.289 317.573,71.188C303.029,67.724 302.274,68.167 302.147,69.403C301.13,79.313 305.945,76.823 315.532,79.372C356.382,90.229 357.293,88.981 380.195,105.879C404.921,124.123 436.749,123.332 442.89,167.432C445.364,185.194 442.187,186.433 457.728,214.377C477.734,250.353 469.196,263.383 474.423,263.889C475.444,263.988 476.479,263.831 477.5,263.93ZM303.149,207.506C303.65,212.327 306.002,210.389 320.622,217.231C333.227,223.13 348.177,240.591 354.649,259.438C354.8,259.877 356.36,264.42 357.501,264.495C361.789,264.774 364.528,265.703 363.014,261.665C356.756,244.972 348.281,221.788 309.614,205.236C309.214,205.064 306.188,203.769 304.499,203.365C302.784,202.955 303.524,204.125 303.149,207.506ZM303.163,222.497C303.448,226.775 302.658,227.53 306.402,229.667C327.148,241.51 326.178,244.824 338.775,263.303C339.308,264.084 340.003,265.103 350.517,264.64C356.683,264.369 339.053,233.475 326.196,224.959C319.145,220.288 317.182,219.303 305.454,214.658C305.315,214.603 304.191,214.158 303.596,214.612C303.175,214.934 303.164,221.865 303.163,222.497ZM303.146,194.501C303.35,197.832 302.158,198.836 305.33,199.941C361.745,219.589 364.619,263.507 368.529,264.379C368.832,264.447 376.655,264.587 377.259,264.159C378.773,263.086 371.659,241.102 359.138,230.919C337.371,213.217 343.483,205.205 317.543,194.407C316.517,193.98 308.591,190.681 304.492,189.674C303.279,189.376 303.156,194.1 303.146,194.501ZM396.977,259.393C391.551,238.174 388.786,237.916 380.625,222.433C376.139,213.922 369.025,184.554 326.518,172.437C324.769,171.939 306.222,166.652 304.514,166.725C303.166,166.783 302.64,167.316 303.187,183.531C303.283,186.388 312.545,188.49 313.384,188.797C347.271,201.238 341.407,211.47 356.891,224.043C375.146,238.868 376.87,248.935 381.925,263.279C382.465,264.812 388.875,264.34 395.492,264.293C398.806,264.269 397.506,262.661 396.977,259.393ZM415.888,260.413C407.661,218.543 401.795,208.757 391.962,196.124C371.313,169.597 371.131,160.298 331.522,143.445C325.597,140.924 305.28,134.866 303.475,136.468C302.077,137.709 303.056,158.626 303.146,160.551C303.303,163.908 316.965,165.466 322.589,167.215C352.957,176.661 367.261,185.146 379.319,210.583C392.503,238.396 396.203,236.969 401.602,262.473C402.112,264.884 408.095,264.244 414.484,264.206C417.103,264.19 416.198,263.011 415.888,260.413ZM436.504,263.937C439.51,263.932 448.855,264.048 449.618,263.691C450.378,263.336 450.203,261.714 450.184,261.537C448.612,246.961 447.046,237.752 435.209,220.711C414.193,190.457 428.075,180.329 416.339,159.59C404.437,138.557 392.899,147.739 357.251,121.854C353.583,119.191 333.867,104.875 304.514,101.14C301.45,100.75 302.611,102.45 302.649,105.499C302.822,119.67 302.778,129.771 303.012,130.639C303.691,133.169 318.515,134.36 327.624,138.214C375.34,158.402 371.334,164.669 389.918,188.15C413.405,217.826 411.368,227.123 420.079,262.65C420.528,264.481 421.558,264.288 436.504,263.937ZM432.727,260.387C430.056,244.098 427.018,237.025 419.999,222.273C406.663,194.241 411.995,184.754 390.048,163.98C372.79,147.645 370.85,150.024 369.875,148.223C368.425,145.543 374.324,147.681 380.422,152.614C407.26,174.325 408.561,178.938 415.842,203.394C419.687,216.308 436.924,246.917 434.15,261.298C432.878,261.362 432.95,261.433 432.878,261.362C432.48,260.97 433.127,260.782 432.727,260.387ZM465.502,263.935C468.35,263.784 468.73,263.324 468.442,260.507C466.503,241.547 463.55,232.699 448.755,206.358C428.296,169.932 455.243,145.714 397.474,120.558C372.839,109.831 370.709,98.484 340.362,90C337.472,89.192 307.348,81.83 304.515,81.379C301.431,80.889 302.217,86.293 302.468,94.502C302.618,99.395 307.738,94.592 335.657,105.078C361.25,114.689 357.201,122.589 393.668,137.052C440.103,155.467 415.263,184.494 436.803,216.294C452.52,239.496 450.926,241.08 454.323,262.555C454.651,264.63 461.145,263.927 465.502,263.935Z" style="fill:rgb(4,5,5);"/>
    </g>
</svg>
