<?xml version="1.0" encoding="UTF-8" standalone="no"?>
<!DOCTYPE svg PUBLIC "-//W3C//DTD SVG 1.1//EN" "http://www.w3.org/Graphics/SVG/1.1/DTD/svg11.dtd">
<svg height="100%" style="fill-rule:evenodd;clip-rule:evenodd;stroke-linejoin:round;stroke-miterlimit:2;" version="1.1" viewBox="0 0 769 309" width="100%"
     xml:space="preserve"
     xmlns="http://www.w3.org/2000/svg">
    <g id="Logo" transform="matrix(0.825046,0,0,0.825046,-422.001747,-218.314055)">
        <g id="pialletto" transform="matrix(4.166667,0,0,4.166667,902.136497,588.3775)">
            <path
              d="M0,-2.925C-0.074,-2.869 -0.24,-2.741 -0.407,-2.613C-0.256,-2.463 -0.125,-2.216 0.05,-2.178C1.026,-1.969 1.668,-1.43 2.007,-0.485C2.068,-0.316 2.37,-0.233 2.561,-0.11C2.634,-0.328 2.805,-0.567 2.763,-0.761C2.538,-1.828 1.33,-2.798 0,-2.925M21.208,-0.379C20.22,0.721 19.329,1.715 18.384,2.768L19.993,2.768C19.767,1.569 20.803,2.271 21.208,1.932L21.208,-0.379ZM30.49,-15.017L31.352,-15.017C32.126,-14.321 32.154,-13.94 31.455,-13.164C28.797,-10.215 26.135,-7.271 23.48,-4.332C23.876,-3.509 23.918,-3.278 23.237,-2.675C22.304,-1.848 22.012,-0.882 22.147,0.308C22.211,0.874 22.158,1.453 22.158,2.027C22.252,2.04 22.347,2.053 22.441,2.066C22.491,1.904 22.596,1.736 22.58,1.58C22.512,0.914 22.931,0.934 23.398,0.921C23.951,0.906 24.017,1.207 24.01,1.65C23.993,2.701 24.005,3.753 24.004,4.805C24.003,5.642 23.936,5.663 23.106,5.656C22.293,5.649 22.739,4.982 22.476,4.593C22.051,4.593 21.577,4.577 21.105,4.597C20.49,4.624 19.871,4.688 19.922,3.775C19.69,3.775 19.523,3.771 19.356,3.776C19.206,3.781 19.056,3.797 18.828,3.814C20.989,6.287 23.555,7.842 26.735,8.407C27.023,7.461 27.668,7.186 28.532,7.239C28.985,7.267 29.442,7.251 29.897,7.24C31.66,7.197 32.941,5.882 32.947,4.11C32.953,2.394 32.371,0.846 31.322,-0.458C30.323,-1.699 29.171,-2.823 28.031,-3.941C27.014,-4.937 26.9,-6.153 27.888,-7.156C30.857,-10.173 34.434,-11.725 38.71,-11.555C39.188,-11.536 39.738,-11.46 39.765,-10.929C39.781,-10.61 39.436,-10.168 39.131,-9.961C38.401,-9.467 37.569,-9.126 36.833,-8.641C35.116,-7.509 34.834,-5.716 36.069,-4.066C36.542,-3.435 37.01,-2.799 37.502,-2.183C39.33,0.102 40.603,2.641 40.899,5.577C41.107,7.638 41.37,9.784 38.908,10.833L38.908,12.084L38.033,12.084C23.684,12.086 9.334,12.089 -5.016,12.092L-5.016,10.658C-4.651,10.332 -4.275,10.018 -3.93,9.673C-3.821,9.563 -3.722,9.356 -3.746,9.216C-3.858,8.561 -3.63,8.056 -3.172,7.606C-2.395,6.841 -2.014,5.905 -2.453,4.874C-2.88,3.874 -3.443,2.924 -4.02,1.998C-4.495,1.235 -4.776,0.451 -4.645,-0.438C-4.313,-2.681 -2.231,-4.16 0.229,-3.803C3.637,-3.309 4.704,0.158 2.999,2.22C2.433,2.906 2.029,3.752 1.67,4.576C1.244,5.555 1.294,6.532 2.134,7.387C3.477,6.601 4.586,5.568 5.48,4.309C5.907,3.707 6.425,3.416 7.176,3.467C7.844,3.513 8.522,3.528 9.185,3.457C9.545,3.418 9.98,3.262 10.213,3.007C13.2,-0.258 16.156,-3.551 19.121,-6.835C20.211,-8.043 21.244,-9.309 22.419,-10.428C23.051,-11.031 23.905,-11.423 24.706,-11.813C24.915,-11.914 25.49,-11.729 25.568,-11.54C25.766,-11.065 25.288,-11 24.949,-10.889C24.632,-10.786 24.304,-10.695 24.015,-10.537C22.525,-9.719 21.876,-7.987 22.289,-5.903C22.71,-6.366 23.11,-6.802 23.505,-7.242C25.834,-9.833 28.162,-12.426 30.49,-15.017"
              style="fill:rgb(30,28,26);fill-rule:nonzero;"/>
        </g>
      <g id="falegnameria" transform="matrix(1,0,0,1,-2.059792,0)">
            <g transform="matrix(4.166667,0,0,4.166667,579.167064,376.0825)">
                <path
                  d="M0,-11.488L5.739,-11.488L5.739,-10.352L1.148,-10.352L1.148,-6.768L5.739,-6.768L5.739,-5.632L1.148,-5.632L1.148,0L0,0L0,-11.488Z"
                  style="fill:rgb(8,6,6);fill-rule:nonzero;"/>
            </g>
        <g transform="matrix(4.166667,0,0,4.166667,657.809147,365.482917)">
                <path
                  d="M0,-6.864L-1.961,-2.544L1.945,-2.544L0,-6.864ZM0.144,-9.408L5.483,2.544L4.256,2.544L2.455,-1.376L-2.487,-1.376L-4.272,2.544L-5.547,2.544L-0.144,-9.408L0.144,-9.408Z"
                  style="fill:rgb(8,6,6);fill-rule:nonzero;"/>
            </g>
        <g transform="matrix(4.166667,0,0,4.166667,715.527897,376.0825)">
                <path d="M0,-11.488L1.164,-11.488L1.164,-1.104L5.563,-1.104L5.563,0L0,0L0,-11.488Z"
                      style="fill:rgb(8,6,6);fill-rule:nonzero;"/>
            </g>
        <g transform="matrix(4.166667,0,0,4.166667,773.777897,376.0825)">
                <path
                  d="M0,-11.488L6.568,-11.488L6.568,-10.352L1.148,-10.352L1.148,-6.768L6.52,-6.768L6.52,-5.648L1.148,-5.648L1.148,-1.136L6.52,-1.136L6.52,0L0,0L0,-11.488Z"
                  style="fill:rgb(8,6,6);fill-rule:nonzero;"/>
            </g>
        <g transform="matrix(4.166667,0,0,4.166667,882.906647,368.084583)">
                <path
                  d="M0,-7.648L-0.876,-6.8C-1.514,-7.419 -2.213,-7.894 -2.973,-8.224C-3.733,-8.555 -4.517,-8.72 -5.324,-8.72C-6.132,-8.72 -6.939,-8.502 -7.747,-8.064C-8.555,-7.627 -9.185,-7.038 -9.636,-6.296C-10.088,-5.555 -10.313,-4.752 -10.313,-3.888C-10.313,-2.544 -9.812,-1.374 -8.807,-0.376C-7.803,0.622 -6.546,1.12 -5.037,1.12C-3.89,1.12 -2.904,0.797 -2.08,0.152C-1.257,-0.493 -0.765,-1.371 -0.605,-2.48L-4.256,-2.48L-4.256,-3.584L0.686,-3.584C0.654,-1.76 0.112,-0.338 -0.94,0.68C-1.992,1.699 -3.369,2.208 -5.069,2.208C-7.024,2.208 -8.589,1.605 -9.764,0.4C-10.938,-0.805 -11.525,-2.221 -11.525,-3.848C-11.525,-5.475 -10.941,-6.883 -9.771,-8.072C-8.603,-9.261 -7.067,-9.856 -5.165,-9.856C-3.263,-9.856 -1.541,-9.12 0,-7.648"
                  style="fill:rgb(8,6,6);fill-rule:nonzero;"/>
            </g>
        <g transform="matrix(4.166667,0,0,4.166667,922.294564,328.217083)">
                <path
                  d="M0,11.488L0,0L0.255,0L7.859,8.8L7.859,0L8.991,0L8.991,11.488L8.736,11.488L1.18,2.8L1.18,11.488L0,11.488Z"
                  style="fill:rgb(8,6,6);fill-rule:nonzero;"/>
            </g>
        <g transform="matrix(4.166667,0,0,4.166667,1017.806647,365.482917)">
                <path
                  d="M0,-6.864L-1.96,-2.544L1.945,-2.544L0,-6.864ZM0.144,-9.408L5.484,2.544L4.257,2.544L2.455,-1.376L-2.486,-1.376L-4.271,2.544L-5.547,2.544L-0.144,-9.408L0.144,-9.408Z"
                  style="fill:rgb(8,6,6);fill-rule:nonzero;"/>
            </g>
        <g transform="matrix(4.166667,0,0,4.166667,1073.40123,328.217083)">
                <path
                  d="M0,11.488L1.626,0L1.801,0L6.456,9.424L11.079,0L11.254,0L12.896,11.488L11.765,11.488L10.648,3.264L6.6,11.488L6.312,11.488L2.216,3.2L1.1,11.488L0,11.488Z"
                  style="fill:rgb(8,6,6);fill-rule:nonzero;"/>
            </g>
        <g transform="matrix(4.166667,0,0,4.166667,1164.128314,376.0825)">
                <path
                  d="M0,-11.488L6.568,-11.488L6.568,-10.352L1.148,-10.352L1.148,-6.768L6.521,-6.768L6.521,-5.648L1.148,-5.648L1.148,-1.136L6.521,-1.136L6.521,0L0,0L0,-11.488Z"
                  style="fill:rgb(8,6,6);fill-rule:nonzero;"/>
            </g>
        <g transform="matrix(4.166667,0,0,4.166667,1232.210814,371.416667)">
                <path
                  d="M0,-9.248L0,-5.344L1.977,-5.344C2.954,-5.333 3.674,-5.485 4.137,-5.8C4.599,-6.114 4.83,-6.613 4.83,-7.296C4.83,-7.978 4.602,-8.475 4.145,-8.784C3.688,-9.093 2.98,-9.248 2.024,-9.248L0,-9.248ZM-1.148,-10.368L1.132,-10.368C2.407,-10.368 3.278,-10.312 3.746,-10.2C4.214,-10.088 4.614,-9.904 4.949,-9.648C5.284,-9.392 5.547,-9.061 5.738,-8.656C5.93,-8.25 6.025,-7.802 6.025,-7.312C6.025,-6.331 5.68,-5.56 4.989,-5C4.298,-4.44 3.32,-4.181 2.056,-4.224L6.185,1.12L4.766,1.12L0.653,-4.224L0,-4.224L0,1.12L-1.148,1.12L-1.148,-10.368Z"
                  style="fill:rgb(8,6,6);fill-rule:nonzero;"/>
            </g>
        <g transform="matrix(4.166667,0,0,4.166667,439.722064,-85.186667)">
                <rect height="11.488" style="fill:rgb(8,6,6);" width="1.147" x="205.103" y="99.217"/>
            </g>
        <g transform="matrix(4.166667,0,0,4.166667,1356.41748,365.482917)">
                <path
                  d="M0,-6.864L-1.96,-2.544L1.945,-2.544L0,-6.864ZM0.144,-9.408L5.484,2.544L4.257,2.544L2.455,-1.376L-2.486,-1.376L-4.271,2.544L-5.547,2.544L-0.144,-9.408L0.144,-9.408Z"
                  style="fill:rgb(8,6,6);fill-rule:nonzero;"/>
            </g>
        </g>
      <g id="santagada" transform="matrix(1,0,0,1,0.672083,0)">
            <g transform="matrix(4.166667,0,0,4.166667,613.658314,437.072917)">
                <path
                  d="M0,12.599L1.702,11.591C2.892,13.794 4.277,14.895 5.858,14.895C6.881,14.895 7.755,14.569 8.48,13.915C9.206,13.262 9.568,12.451 9.568,11.48C9.568,10.714 9.262,9.94 8.648,9.156C8.034,8.371 7.016,7.443 5.593,6.37C4.17,5.296 3.212,4.494 2.72,3.961C2.227,3.429 1.864,2.86 1.632,2.253C1.399,1.647 1.283,1.036 1.283,0.419C1.283,-0.887 1.743,-1.993 2.664,-2.899C3.584,-3.804 4.742,-4.257 6.137,-4.257C7.234,-4.257 8.192,-3.981 9.01,-3.431C9.829,-2.88 10.619,-2.063 11.382,-0.981L9.764,0.28C9.243,-0.43 8.704,-1.018 8.146,-1.485C7.588,-1.951 6.904,-2.185 6.095,-2.185C5.286,-2.185 4.626,-1.942 4.115,-1.457C3.603,-0.971 3.348,-0.355 3.348,0.391C3.348,1.138 3.575,1.787 4.031,2.337C4.486,2.888 5.519,3.761 7.127,4.955C8.736,6.15 9.908,7.251 10.643,8.259C11.377,9.267 11.744,10.331 11.744,11.452C11.744,12.908 11.182,14.172 10.057,15.245C8.931,16.319 7.625,16.856 6.137,16.856C3.515,16.856 1.469,15.437 0,12.599"
                  style="fill:rgb(8,6,6);fill-rule:nonzero;"/>
            </g>
        <g transform="matrix(4.166667,0,0,4.166667,713.85123,486.652083)">
                <path
                  d="M0,-12.012L-3.431,-4.451L3.403,-4.451L0,-12.012ZM0.251,-16.464L9.597,4.452L7.449,4.452L4.296,-2.408L-4.352,-2.408L-7.476,4.452L-9.708,4.452L-0.251,-16.464L0.251,-16.464Z"
                  style="fill:rgb(8,6,6);fill-rule:nonzero;"/>
            </g>
        <g transform="matrix(4.166667,0,0,4.166667,767.43623,421.435)">
                <path
                  d="M0,20.104L0,0L0.446,0L13.753,15.401L13.753,0L15.733,0L15.733,20.104L15.287,20.104L2.064,4.901L2.064,20.104L0,20.104Z"
                  style="fill:rgb(8,6,6);fill-rule:nonzero;"/>
            </g>
        <g transform="matrix(4.166667,0,0,4.166667,845.660814,497.035)">
                <path
                  d="M0,-16.184L0,-18.144L10.991,-18.144L10.991,-16.184L6.528,-16.184L6.528,1.96L4.491,1.96L4.491,-16.184L0,-16.184Z"
                  style="fill:rgb(8,6,6);fill-rule:nonzero;"/>
            </g>
        <g transform="matrix(4.166667,0,0,4.166667,937.138314,486.652083)">
                <path
                  d="M0,-12.012L-3.431,-4.451L3.403,-4.451L0,-12.012ZM0.251,-16.464L9.597,4.452L7.449,4.452L4.296,-2.408L-4.352,-2.408L-7.476,4.452L-9.708,4.452L-0.251,-16.464L0.251,-16.464Z"
                  style="fill:rgb(8,6,6);fill-rule:nonzero;"/>
            </g>
        <g transform="matrix(4.166667,0,0,4.166667,1071.273314,491.200833)">
                <path
                  d="M0,-13.383L-1.534,-11.9C-2.65,-12.982 -3.873,-13.813 -5.202,-14.392C-6.532,-14.97 -7.904,-15.259 -9.317,-15.259C-10.73,-15.259 -12.145,-14.877 -13.558,-14.112C-14.971,-13.346 -16.073,-12.315 -16.863,-11.018C-17.654,-9.72 -18.049,-8.316 -18.049,-6.804C-18.049,-4.451 -17.17,-2.403 -15.413,-0.657C-13.655,1.089 -11.456,1.961 -8.815,1.961C-6.807,1.961 -5.082,1.396 -3.641,0.266C-2.199,-0.862 -1.339,-2.398 -1.06,-4.339L-7.448,-4.339L-7.448,-6.272L1.2,-6.272C1.144,-3.079 0.195,-0.592 -1.646,1.19C-3.487,2.973 -5.896,3.865 -8.871,3.865C-12.293,3.865 -15.032,2.81 -17.087,0.701C-19.142,-1.408 -20.169,-3.887 -20.169,-6.734C-20.169,-9.58 -19.146,-12.044 -17.101,-14.126C-15.055,-16.207 -12.367,-17.248 -9.038,-17.248C-5.709,-17.248 -2.696,-15.96 0,-13.383"
                  style="fill:rgb(8,6,6);fill-rule:nonzero;"/>
            </g>
        <g transform="matrix(4.166667,0,0,4.166667,1125.675814,486.652083)">
                <path
                  d="M0,-12.012L-3.432,-4.451L3.403,-4.451L0,-12.012ZM0.251,-16.464L9.596,4.452L7.448,4.452L4.296,-2.408L-4.353,-2.408L-7.477,4.452L-9.708,4.452L-0.251,-16.464L0.251,-16.464Z"
                  style="fill:rgb(8,6,6);fill-rule:nonzero;"/>
            </g>
        <g transform="matrix(4.166667,0,0,4.166667,1187.15873,429.362917)">
                <path
                  d="M0,16.298L2.315,16.298C4.733,16.298 6.486,16.177 7.574,15.934C8.662,15.692 9.615,15.21 10.434,14.491C11.252,13.774 11.875,12.901 12.303,11.874C12.73,10.848 12.944,9.671 12.944,8.346C12.944,7.021 12.697,5.798 12.205,4.678C11.712,3.558 11.01,2.634 10.099,1.905C9.188,1.178 8.113,0.688 6.877,0.436C5.64,0.183 3.822,0.057 1.423,0.057L0,0.057L0,16.298ZM-1.925,18.201L-1.925,-1.903L2.232,-1.903C5.077,-1.903 7.165,-1.693 8.495,-1.272C9.824,-0.852 10.973,-0.19 11.94,0.715C12.907,1.621 13.651,2.728 14.172,4.033C14.692,5.341 14.953,6.866 14.953,8.611C14.953,10.358 14.549,12 13.739,13.54C12.931,15.08 11.833,16.241 10.447,17.026C9.062,17.81 7.067,18.201 4.464,18.201L-1.925,18.201Z"
                  style="fill:rgb(8,6,6);fill-rule:nonzero;"/>
            </g>
        <g transform="matrix(4.166667,0,0,4.166667,1299.329147,486.652083)">
                <path
                  d="M0,-12.012L-3.432,-4.451L3.403,-4.451L0,-12.012ZM0.251,-16.464L9.596,4.452L7.448,4.452L4.296,-2.408L-4.353,-2.408L-7.477,4.452L-9.708,4.452L-0.251,-16.464L0.251,-16.464Z"
                  style="fill:rgb(8,6,6);fill-rule:nonzero;"/>
            </g>
        </g>
      <g id="rettangoli">
            <g transform="matrix(-4.166667,0,0,4.166667,511.493314,264.608333)">
                <rect height="3.033" style="fill:rgb(30,28,26);" width="223.358" x="-223.358" y="0"/>
            </g>
        <g transform="matrix(-4.166667,0,0,4.166667,892.609564,386.246667)">
                <rect height="3.172" style="fill:rgb(17,99,50);" width="74.245" x="17.224" y="46.803"/>
            </g>
        <g transform="matrix(-4.166667,0,0,4.166667,2136.57623,386.246667)">
                <rect height="3.172" style="fill:rgb(225,30,39);" width="74.245" x="166.5" y="46.803"/>
            </g>
        </g>
    </g>
</svg>
